<?xml version="1.0" standalone="no"?><!DOCTYPE svg PUBLIC "-//W3C//DTD SVG 1.1//EN" "http://www.w3.org/Graphics/SVG/1.1/DTD/svg11.dtd"><svg width="200" height="200" viewBox="0 0 200 200" version="1.1" xmlns="http://www.w3.org/2000/svg" xmlns:xlink="http://www.w3.org/1999/xlink"><defs><style type="text/css"><![CDATA[
@font-face { font-family: ifont; src: url("//at.alicdn.com/t/font_1442373896_4754455.eot?#iefix") format("embedded-opentype"), url("//at.alicdn.com/t/font_1442373896_4754455.woff") format("woff"), url("//at.alicdn.com/t/font_1442373896_4754455.ttf") format("truetype"), url("//at.alicdn.com/t/font_1442373896_4754455.svg#ifont") format("svg"); }

]]></style></defs><g class="transform-group"><g transform="scale(0.1953125, 0.1953125)"><path d="M785.431273 69.818182H239.313455C145.733818 69.818182 69.818182 142.778182 69.818182 233.425455v557.14909C69.818182 880.477091 145.733818 954.181818 239.313455 954.181818h546.094545c93.579636 0 169.495273-72.96 169.495273-163.607273V232.704C954.181818 142.778182 879.010909 69.818182 785.431273 69.818182z m103.889454 171.706182v540.928c0 60.439273-50.106182 109.079273-112.756363 109.079272H248.157091c-61.905455 0-112.756364-49.384727-112.756364-109.079272V241.524364c0-60.439273 50.850909-109.079273 112.756364-109.079273h528.407273c61.905455 0.023273 112.756364 49.384727 112.756363 109.079273zM284.276364 532.642909h199.726545c19.898182 0 36.840727-15.499636 36.840727-35.374545v-192.349091c0-19.153455-16.197818-35.374545-36.840727-35.374546h-199.726545c-19.898182 0-36.840727 15.476364-36.840728 35.374546v193.093818c-0.023273 19.130182 16.197818 34.629818 36.840728 34.629818z m19.898181-66.327273v-130.443636a11.636364 11.636364 0 0 1 11.776-11.776h134.865455a11.636364 11.636364 0 0 1 11.776 11.776v130.443636a11.636364 11.636364 0 0 1-11.776 11.799273h-134.120727c-6.632727-0.023273-12.520727-5.166545-12.520728-11.799273zM748.567273 308.596364h-175.406546c-15.476364 0-28.741818 12.544-28.741818 27.275636s12.544 27.252364 28.741818 27.252364h175.406546c15.476364 0 28.741818-12.520727 28.741818-27.252364s-13.265455-27.275636-28.741818-27.275636zM748.567273 439.04h-175.406546c-15.476364 0-28.741818 12.544-28.741818 27.275636 0 15.476364 12.544 27.275636 28.741818 27.275637h175.406546c15.476364 0 28.741818-12.544 28.741818-27.275637a29.021091 29.021091 0 0 0-28.741818-27.275636zM748.567273 699.927273H276.177455c-15.476364 0-28.741818 12.544-28.741819 27.275636 0 15.476364 12.544 27.275636 28.741819 27.275636h472.389818c15.476364 0 28.741818-12.544 28.741818-27.275636a28.509091 28.509091 0 0 0-28.741818-27.275636zM748.567273 569.483636H276.177455c-15.476364 0-28.741818 12.520727-28.741819 27.252364 0 15.476364 12.544 27.275636 28.741819 27.275636h472.389818c15.476364 0 28.741818-12.544 28.741818-27.275636a28.485818 28.485818 0 0 0-28.741818-27.252364z" fill="#5074d7"></path></g></g></svg>