<?xml version="1.0" standalone="no"?><!DOCTYPE svg PUBLIC "-//W3C//DTD SVG 1.1//EN" "http://www.w3.org/Graphics/SVG/1.1/DTD/svg11.dtd"><svg width="200" height="200" viewBox="0 0 200 200" version="1.1" xmlns="http://www.w3.org/2000/svg" xmlns:xlink="http://www.w3.org/1999/xlink"><defs><style type="text/css"><![CDATA[
@font-face { font-family: ifont; src: url("//at.alicdn.com/t/font_1442373896_4754455.eot?#iefix") format("embedded-opentype"), url("//at.alicdn.com/t/font_1442373896_4754455.woff") format("woff"), url("//at.alicdn.com/t/font_1442373896_4754455.ttf") format("truetype"), url("//at.alicdn.com/t/font_1442373896_4754455.svg#ifont") format("svg"); }

]]></style></defs><g class="transform-group"><g transform="scale(0.1953125, 0.1953125)"><path d="M512 42.325991c-259.393795 0-469.674009 210.280214-469.674009 469.674009s210.280214 469.674009 469.674009 469.674009 469.674009-210.280214 469.674009-469.674009S771.393795 42.325991 512 42.325991zM512 930.026722c-230.870158 0-418.027745-187.157587-418.027745-418.027745S281.129842 93.972255 512 93.972255s418.027745 187.157587 418.027745 418.027745S742.870158 930.026722 512 930.026722zM601.576131 649.505747l-22.39301 0L579.183122 447.966615c0-6.063089-2.219551-11.311627-6.64842-15.744589-4.433986-4.428869-9.682523-6.64842-15.745612-6.64842L422.431032 425.573605c-6.068206 0-11.316743 2.219551-15.745612 6.64842-4.433986 4.433986-6.64842 9.6815-6.64842 15.744589l0 44.787042c0 6.068206 2.214435 11.316743 6.64842 15.744589 4.428869 4.433986 9.677407 6.649444 15.745612 6.649444l22.39301 0 0 134.359081-22.39301 0c-6.068206 0-11.316743 2.219551-15.745612 6.647397-4.433986 4.433986-6.64842 9.682523-6.64842 15.745612l0 44.787042c0 6.068206 2.214435 11.316743 6.64842 15.745612 4.428869 4.432962 9.677407 6.647397 15.745612 6.647397l179.1451 0c6.063089 0 11.311627-2.214435 15.745612-6.647397 4.427846-4.428869 6.647397-9.677407 6.647397-15.745612l0-44.787042c0-6.063089-2.219551-11.311627-6.647397-15.745612C612.887758 651.725298 607.639221 649.505747 601.576131 649.505747zM467.217051 358.393553l89.573061 0c6.063089 0 11.311627-2.214435 15.745612-6.64842 4.428869-4.428869 6.64842-9.677407 6.64842-15.745612l0-67.179029c0-6.063089-2.219551-11.311627-6.64842-15.745612-4.433986-4.427846-9.682523-6.64842-15.745612-6.64842l-89.573061 0c-6.068206 0-11.316743 2.219551-15.745612 6.64842-4.433986 4.433986-6.64842 9.682523-6.64842 15.745612l0 67.179029c0 6.068206 2.214435 11.316743 6.64842 15.745612C455.900308 356.179119 461.148845 358.393553 467.217051 358.393553z" fill="#5074d7"></path></g></g></svg>