<?xml version="1.0" standalone="no"?><!DOCTYPE svg PUBLIC "-//W3C//DTD SVG 1.1//EN" "http://www.w3.org/Graphics/SVG/1.1/DTD/svg11.dtd"><svg width="16" height="16" viewBox="0 0 16 16" version="1.1" xmlns="http://www.w3.org/2000/svg" xmlns:xlink="http://www.w3.org/1999/xlink"><defs><style type="text/css"><![CDATA[
@font-face { font-family: ifont; src: url("//at.alicdn.com/t/font_1442373896_4754455.eot?#iefix") format("embedded-opentype"), url("//at.alicdn.com/t/font_1442373896_4754455.woff") format("woff"), url("//at.alicdn.com/t/font_1442373896_4754455.ttf") format("truetype"), url("//at.alicdn.com/t/font_1442373896_4754455.svg#ifont") format("svg"); }

]]></style></defs><g class="transform-group"><g transform="scale(0.015625, 0.015625)"><path d="M631.316087 486.762686c44.746155-35.434059 73.640258-90.340631 73.640258-152.023544 0-106.628612-86.022275-193.386645-191.789263-193.386645-105.755731 0-191.776983 86.758033-191.776983 193.386645 0 61.682913 28.894103 116.589485 73.627978 152.023544-117.900341 47.517271-201.475889 163.630918-201.475889 299.204798l0 64.440726c0 17.823965 14.304812 32.240317 31.952768 32.240317l575.356532 0c17.661259 0 31.952768-14.416352 31.952768-32.240317l0-64.440726C832.804256 650.331182 749.215405 534.279956 631.316087 486.762686L631.316087 486.762686 631.316087 486.762686 631.316087 486.762686 631.316087 486.762686zM386.131677 334.477175c0-70.657317 56.965466-128.096575 127.036428-128.096575s127.047685 57.439258 127.047685 128.096575c0 70.632758-56.977746 128.096575-127.047685 128.096575S386.131677 405.134492 386.131677 334.477175L386.131677 334.477175 386.131677 334.477175 386.131677 334.477175 386.131677 334.477175zM762.371043 817.08421l-498.433505 0 0-31.416555c0-138.568077 111.808594-251.31402 249.266383-251.31402 137.396391 0 249.167122 112.745943 249.167122 251.31402L762.371043 817.08421 762.371043 817.08421 762.371043 817.08421 762.371043 817.08421 762.371043 817.08421zM283.895099 511.475555l6.852065-1.510401c14.702878-4.517901 25.187684-16.388265 25.187684-30.3165 0-13.455467-9.798167-24.96358-23.689562-29.818149-37.543095-15.677067-61.769894-50.087819-61.769894-87.994188 0-42.960484 40.352074-79.156907 82.589079-91.700607 7.401581-20.980868 18.585306-40.389936 32.826672-57.551821 2.483567-3.794423 5.104256-7.501865 7.82523-11.133583-2.834561-0.137123-5.528929-0.786923-8.450471-0.786923-96.668763 0-175.350855 72.292562-175.350855 161.172934 0 40.802329 16.912198 79.044343 45.606756 108.126734-91.289237 43.460881-150.826275 130.393899-150.826275 228.733723l0 49.864738c0 17.823965 15.689346 32.225991 35.060552 32.225991l62.831063 0c0-22.078877 2.459007-36.245542 7.077193-57.06575l-44.396184 0 0-25.024978C125.2702 609.616857 190.423148 533.157388 283.895099 511.475555L283.895099 511.475555 283.895099 511.475555 283.895099 511.475555 283.895099 511.475555zM808.527315 469.963051c28.707861-29.081368 45.620059-67.336685 45.620059-108.126734 0-88.880372-78.658556-161.197493-175.351879-161.197493-2.920519 0-5.629213 0.661056-8.462751 0.786923 2.734277 3.631717 5.353943 7.351439 7.82523 11.133583 14.25467 17.161885 25.437371 36.570953 32.802113 57.551821 42.237006 12.5437 88.43114 48.740123 88.43114 91.700607 0 37.918649-24.264661 72.341681-61.770917 88.006468-13.891396 4.84229-23.689562 16.351426-23.689562 29.805869 0 13.929258 10.510388 25.798598 25.187684 30.3165l6.839785 1.510401c93.51186 21.705369 158.639225 98.142326 158.639225 187.245779l0 25.024978-50.262804 0c4.642745 20.820209 7.077193 34.985851 7.077193 57.06575l62.831063 0c19.395765 0 35.060552-14.402026 35.060552-32.225991l0-49.864738C959.364846 600.355927 899.829855 513.422909 808.527315 469.963051L808.527315 469.963051 808.527315 469.963051 808.527315 469.963051 808.527315 469.963051zM808.527315 469.963051" fill="#ffffff"></path></g></g></svg>