<?xml version="1.0" standalone="no"?><!DOCTYPE svg PUBLIC "-//W3C//DTD SVG 1.1//EN" "http://www.w3.org/Graphics/SVG/1.1/DTD/svg11.dtd"><svg width="16" height="16" viewBox="0 0 16 16" version="1.1" xmlns="http://www.w3.org/2000/svg" xmlns:xlink="http://www.w3.org/1999/xlink"><defs><style type="text/css"><![CDATA[
@font-face { font-family: ifont; src: url("//at.alicdn.com/t/font_1442373896_4754455.eot?#iefix") format("embedded-opentype"), url("//at.alicdn.com/t/font_1442373896_4754455.woff") format("woff"), url("//at.alicdn.com/t/font_1442373896_4754455.ttf") format("truetype"), url("//at.alicdn.com/t/font_1442373896_4754455.svg#ifont") format("svg"); }

]]></style></defs><g class="transform-group"><g transform="scale(0.015625, 0.015625)"><path d="M512 0c-282.332728 0-511.980223 229.687049-511.980223 511.980223S229.667272 1024 512 1024s511.980223-229.687049 511.980223-511.980223S794.332728 0 512 0zM512 996.312565c-267.065086 0-484.332342-217.267256-484.332342-484.332342S244.934914 27.687435 512 27.687435 996.332342 244.954691 996.332342 511.980223 779.065086 996.312565 512 996.312565zM795.084244 513.957897c-1.503032-1.859013-3.124725-3.63892-4.825524-5.45838 6.328557-9.334621 10.00703-20.607362 10.00703-32.75028 0-32.315192-26.184403-58.539148-58.539148-58.539148-9.295067 0-18.07594 2.214995-25.907528 6.091236C709.688285 393.952644 683.622542 371.881803 652.375295 371.881803 622.828846 371.881803 597.910155 391.698096 590.11812 418.792228c-31.168141-4.350883-56.2846 0.474642-71.512689 20.686469L512.79107 390.907026c10.323458 7.515161 25.235119 10.521225 41.887134 10.521225 31.207694 0 56.521921-10.442118 56.521921-41.649813 0-27.568774-19.776739-50.509792-45.921588-55.49353 9.255514-6.684538 15.34675-17.522191 15.34675-29.862876 0-20.370041-16.533354-36.903395-36.903395-36.903395-20.370041 0-36.903395 16.533354-36.903395 36.903395 0 15.702731 9.848816 28.9927 23.65298 34.332419C515.362046 315.953185 504.010197 329.599135 499.896636 346.132489c-12.063811-19.22299-32.117424-32.829387-55.572637-36.191433 20.963344-5.102399 36.547414-23.929854 36.547414-46.435784 0-26.421724-21.437985-47.859709-47.859709-47.859709-26.421724 0-47.859709 21.437985-47.859709 47.859709 0 22.505929 15.58407 41.372938 36.547414 46.435784-38.248214 5.497933-67.676001 38.32732-67.676001 78.078566 0 43.627487 35.36081 58.22272 78.988296 58.22272 13.131755 0 25.47244-1.344818 36.349647-4.390436l-17.324424 144.409749-68.22975-60.437715 19.618525-19.618525c8.464444 6.289003 20.449148 5.656147 28.122523-2.017227 8.424891-8.424891 8.424891-22.149948 0-30.574839-7.673375-7.673375-19.658079-8.30623-28.122523-2.017227L305.174862 373.305728l20.80513-20.80513-7.356947-7.356947-20.80513 20.80513-3.480706 3.480706-1.02839 1.02839 37.654911 37.654911-13.052648 13.052648-30.297964-30.297964-14.67434 14.67434-10.204797-10.204797c-7.080073-7.080073-18.590135-7.080073-25.670207 0l-2.570976 2.570976c-7.080073 7.080073-7.080073 18.590135 0 25.670207l10.204797 10.204797-17.245317 17.245317 30.297964 30.297964-31.286801 31.286801 75.468037 26.579937 80.016687-80.016687 16.928889 16.928889c-5.656147 7.633821-5.656147 18.036386 0 25.630654L348.881455 551.810576c-8.464444-6.289003-20.449148-5.656147-28.122523 2.017227-8.424891 8.424891-8.424891 22.149948 0 30.574839s22.149948 8.424891 30.574839 0c7.673375-7.673375 8.30623-19.658079 2.017227-28.122523l20.01406-20.01406 72.699293 99.635212-11.747383 97.973966-75.744911 50.272471 267.539727 0-71.987331-47.780602-13.408629-111.857237L612.109854 562.09448c7.198733 3.006064 14.55568 6.012129 22.070841 9.057747 48.729885 19.816293 92.040944 36.982502 123.841941 35.439917 6.961412 3.63892 14.832554 5.735254 23.217892 5.735254 27.687435 0 50.15381-22.466376 50.15381-50.15381C831.433891 539.272123 816.047588 519.970026 795.084244 513.957897zM249.641778 428.878365l-10.204797-10.204797c-4.390436-4.390436-4.390436-11.510062 0-15.900498l2.570976-2.570976c4.390436-4.390436 11.510062-4.390436 15.900498 0l10.204797 10.204797L249.641778 428.878365zM534.664143 573.564989 527.900498 516.924408c13.131755 11.351848 31.365908 21.477539 52.64568 31.405462L534.664143 573.564989z" fill="#32ad61"></path></g></g></svg>