<?xml version="1.0" standalone="no"?><!DOCTYPE svg PUBLIC "-//W3C//DTD SVG 1.1//EN" "http://www.w3.org/Graphics/SVG/1.1/DTD/svg11.dtd"><svg width="16" height="16" viewBox="0 0 16 16" version="1.1" xmlns="http://www.w3.org/2000/svg" xmlns:xlink="http://www.w3.org/1999/xlink"><defs><style type="text/css"><![CDATA[
@font-face { font-family: ifont; src: url("//at.alicdn.com/t/font_1442373896_4754455.eot?#iefix") format("embedded-opentype"), url("//at.alicdn.com/t/font_1442373896_4754455.woff") format("woff"), url("//at.alicdn.com/t/font_1442373896_4754455.ttf") format("truetype"), url("//at.alicdn.com/t/font_1442373896_4754455.svg#ifont") format("svg"); }

]]></style></defs><g class="transform-group"><g transform="scale(0.015625, 0.015625)"><path d="M821.029262 849.110831l-178.198541 0L642.830721 419.929048l141.702326 34.508955c20.151969 6.340405 36.491099 28.67611 36.491099 49.739844l0 344.932983L821.029262 849.110831zM583.433936 849.110831 202.983018 849.110831 202.983018 213.077933c0-21.089317 17.3389-38.182624 38.375006-38.182624l303.69579 0c21.192671 0 38.380122 17.07898 38.380122 38.182624L583.433936 849.110831zM939.365414 849.110831l-58.938344 0L880.42707 463.648782c0-21.187555-16.334014-33.395598-36.606733-39.781028l-200.989617-63.264882L642.830721 153.849994c0-21.143553-17.177218-38.287001-38.449707-38.287001l-422.349167 0c-21.23258 0-38.451754 16.990976-38.451754 38.361703l0 695.179996L84.643796 849.104691c-10.69048 0-19.352767 8.756431-19.352767 19.10308l0 21.129226c0 10.55131 8.609075 19.097964 19.11229 19.097964l854.972329 0c10.680247 0 19.334347-8.747221 19.334347-19.097964l0-21.129226C958.717158 857.665671 950.041568 849.110831 939.365414 849.110831zM379.723348 362.857215 253.751285 362.857215c-0.399089 0-0.725524-0.326435-0.725524-0.725524l0-78.821183c0-0.399089 0.326435-0.725524 0.725524-0.725524l125.972063 0c0.399089 0 0.725524 0.326435 0.725524 0.725524l0 78.821183C380.448872 362.53078 380.122437 362.857215 379.723348 362.857215zM533.933545 362.857215 407.960459 362.857215c-0.399089 0-0.725524-0.326435-0.725524-0.725524l0-78.821183c0-0.399089 0.326435-0.725524 0.725524-0.725524l125.972063 0c0.399089 0 0.725524 0.326435 0.725524 0.725524l0 78.821183C534.659069 362.53078 534.332634 362.857215 533.933545 362.857215zM379.723348 530.602683 253.751285 530.602683c-0.399089 0-0.725524-0.326435-0.725524-0.725524L253.025761 451.055976c0-0.399089 0.326435-0.725524 0.725524-0.725524l125.972063 0c0.399089 0 0.725524 0.326435 0.725524 0.725524l0 78.821183C380.448872 530.276249 380.122437 530.602683 379.723348 530.602683zM533.933545 530.602683 407.960459 530.602683c-0.399089 0-0.725524-0.326435-0.725524-0.725524L407.234935 451.055976c0-0.399089 0.326435-0.725524 0.725524-0.725524l125.972063 0c0.399089 0 0.725524 0.326435 0.725524 0.725524l0 78.821183C534.659069 530.276249 534.332634 530.602683 533.933545 530.602683zM696.582949 633.948423 696.582949 507.668345c0-0.314155 0.25685-0.571005 0.571005-0.571005l62.080917 0c0.314155 0 0.571005 0.25685 0.571005 0.571005l0 126.280078c0 0.314155-0.25685 0.571005-0.571005 0.571005l-62.080917 0C696.839799 634.519428 696.582949 634.262578 696.582949 633.948423zM696.582949 788.15862 696.582949 661.878542c0-0.314155 0.25685-0.571005 0.571005-0.571005l62.080917 0c0.314155 0 0.571005 0.25685 0.571005 0.571005l0 126.280078c0 0.314155-0.25685 0.571005-0.571005 0.571005l-62.080917 0C696.839799 788.729625 696.582949 788.472775 696.582949 788.15862zM379.723348 699.520861l-125.972063 0c-0.399089 0-0.725524-0.326435-0.725524-0.725524l0-78.821183c0-0.399089 0.326435-0.725524 0.725524-0.725524l125.972063 0c0.399089 0 0.725524 0.326435 0.725524 0.725524l0 78.821183C380.448872 699.194426 380.122437 699.520861 379.723348 699.520861zM533.933545 699.520861l-125.972063 0c-0.399089 0-0.725524-0.326435-0.725524-0.725524l0-78.821183c0-0.399089 0.326435-0.725524 0.725524-0.725524l125.972063 0c0.399089 0 0.725524 0.326435 0.725524 0.725524l0 78.821183C534.659069 699.194426 534.332634 699.520861 533.933545 699.520861z" fill="#5074d7"></path></g></g></svg>