<?xml version="1.0" standalone="no"?><!DOCTYPE svg PUBLIC "-//W3C//DTD SVG 1.1//EN" "http://www.w3.org/Graphics/SVG/1.1/DTD/svg11.dtd"><svg width="16.015625" height="16" viewBox="0 0 16.015625 16" version="1.1" xmlns="http://www.w3.org/2000/svg" xmlns:xlink="http://www.w3.org/1999/xlink"><defs><style type="text/css"><![CDATA[
@font-face { font-family: ifont; src: url("//at.alicdn.com/t/font_1442373896_4754455.eot?#iefix") format("embedded-opentype"), url("//at.alicdn.com/t/font_1442373896_4754455.woff") format("woff"), url("//at.alicdn.com/t/font_1442373896_4754455.ttf") format("truetype"), url("//at.alicdn.com/t/font_1442373896_4754455.svg#ifont") format("svg"); }

]]></style></defs><g class="transform-group"><g transform="scale(0.015625, 0.015625)"><path d="M512.511499 1.022977C230.024572 1.022977 1.022977 230.024572 1.022977 512.511499s229.001595 511.488522 511.488522 511.488522 511.488522-229.001595 511.488522-511.488522S794.998425 1.022977 512.511499 1.022977zM512.511499 972.851168C258.27306 972.851168 52.171829 766.749937 52.171829 512.511499S258.27306 52.171829 512.511499 52.171829s460.33967 206.101231 460.33967 460.33967S766.749937 972.851168 512.511499 972.851168zM766.450205 386.326257c0-103.513001-82.072425-182.011144-185.591564-182.011144l-137.743859 0c-103.520162 0-186.409946 78.498143-186.409946 182.011144-40.748245 0-72.965884 30.94301-85.879946 67.260741l0.7079 182.649482c0 0 44.157827 182.834641 177.866042 182.834641l325.175759 0c132.39062 0 179.623516-182.834641 179.623516-182.834641l-0.26802-182.649482C841.016025 417.269267 807.19845 386.326257 766.450205 386.326257zM318.159159 386.326257c0-69.012077 55.942523-127.206172 124.955623-127.206172l137.743859 0c69.012077 0 124.955623 58.193072 124.955623 127.206172l0 24.322302c-19.042718 17.15021-31.23865 41.747693-31.23865 69.394671l0 62.4773c0 0-27.971261 62.4773-62.4773 62.4773L411.876132 604.99783c-34.506039 0-62.4773-62.4773-62.4773-62.4773l0-62.4773c0-27.645955-12.195932-52.244461-31.23865-69.394671l0-24.322302L318.159159 386.326257 318.159159 386.326257zM801.985359 636.23648c0 0-52.193312 129.251103-127.410768 129.251103L349.397809 765.487584c-75.217456 0-127.922256-129.251103-127.922256-129.251103L221.475553 480.042207c0-17.249439 21.446714-35.534131 38.696153-35.534131 17.2566 0 35.826702 18.284692 35.826702 35.534131l0 62.4773c0 0 25.381083 106.231051 115.876702 110.250328l200.221159 0c76.809208-1.090494 116.07209-110.250328 116.07209-110.250328L728.168358 480.042207c0-17.249439 19.059085-35.046171 36.315685-35.046171 17.249439 0 37.501315 17.796732 37.501315 35.046171L801.985359 636.23648z" fill="#52c7c0"></path></g></g></svg>