<?xml version="1.0" standalone="no"?><!DOCTYPE svg PUBLIC "-//W3C//DTD SVG 1.1//EN" "http://www.w3.org/Graphics/SVG/1.1/DTD/svg11.dtd"><svg width="16" height="16" viewBox="0 0 16 16" version="1.1" xmlns="http://www.w3.org/2000/svg" xmlns:xlink="http://www.w3.org/1999/xlink"><defs><style type="text/css"><![CDATA[
@font-face { font-family: ifont; src: url("//at.alicdn.com/t/font_1442373896_4754455.eot?#iefix") format("embedded-opentype"), url("//at.alicdn.com/t/font_1442373896_4754455.woff") format("woff"), url("//at.alicdn.com/t/font_1442373896_4754455.ttf") format("truetype"), url("//at.alicdn.com/t/font_1442373896_4754455.svg#ifont") format("svg"); }

]]></style></defs><g class="transform-group"><g transform="scale(0.015625, 0.015625)"><path d="M587.132164 584.126714l101.289917 0 0 101.276614-101.289917 0L587.132164 584.126714zM511.11791 60.365856c-248.960165 0-450.78173 201.820542-450.78173 450.780707 0 248.959142 201.821565 450.780707 450.78173 450.780707 248.959142 0 450.780707-201.821565 450.780707-450.780707C961.898617 262.186398 760.077052 60.365856 511.11791 60.365856zM485.769592 710.744483c0 13.982456-11.330046 25.311479-25.312502 25.311479L308.500213 736.055962c-13.997805 0-25.341155-11.329023-25.341155-25.311479l0-8.305153L283.159058 578.534346l0-19.74674c0-13.982456 11.343349-25.341155 25.341155-25.341155l151.956877 0c13.982456 0 25.312502 11.359722 25.312502 25.341155L485.769592 710.744483zM485.769592 463.536218c0 13.982456-11.330046 25.326828-25.312502 25.326828L308.500213 488.863047c-13.997805 0-25.341155-11.343349-25.341155-25.326828L283.159058 311.577295c0-13.982456 11.343349-25.341155 25.341155-25.341155l151.956877 0c13.982456 0 25.312502 11.359722 25.312502 25.341155L485.769592 463.536218zM739.075739 710.744483c0 13.982456-11.343349 25.311479-25.326828 25.311479L561.79101 736.055962c-13.982456 0-25.327852-11.329023-25.327852-25.311479L536.463158 558.786583c0-13.982456 11.344373-25.341155 25.327852-25.341155l151.957901 0c13.982456 0 25.326828 11.359722 25.326828 25.341155L739.075739 710.744483zM739.075739 463.536218c0 13.982456-11.343349 25.326828-25.326828 25.326828L561.79101 488.863047c-13.982456 0-25.327852-11.343349-25.327852-25.326828L536.463158 311.577295c0-13.982456 11.344373-25.341155 25.327852-25.341155l151.957901 0c13.982456 0 25.326828 11.359722 25.326828 25.341155L739.075739 463.536218z" fill="#8fe695"></path></g></g></svg>