<?xml version="1.0" standalone="no"?><!DOCTYPE svg PUBLIC "-//W3C//DTD SVG 1.1//EN" "http://www.w3.org/Graphics/SVG/1.1/DTD/svg11.dtd"><svg width="16" height="16" viewBox="0 0 16 16" version="1.1" xmlns="http://www.w3.org/2000/svg" xmlns:xlink="http://www.w3.org/1999/xlink"><defs><style type="text/css"><![CDATA[
@font-face { font-family: ifont; src: url("//at.alicdn.com/t/font_1442373896_4754455.eot?#iefix") format("embedded-opentype"), url("//at.alicdn.com/t/font_1442373896_4754455.woff") format("woff"), url("//at.alicdn.com/t/font_1442373896_4754455.ttf") format("truetype"), url("//at.alicdn.com/t/font_1442373896_4754455.svg#ifont") format("svg"); }

]]></style></defs><g class="transform-group"><g transform="scale(0.015625, 0.015625)"><path d="M923.31895 476.532207 547.4637 476.532207 547.4637 99.652628c0-19.580964-15.878642-35.462676-35.464723-35.462676s-35.4637 15.880689-35.4637 35.462676l0 376.87958L98.632391 476.532207c-19.587104 0-35.4637 15.878642-35.4637 35.467793 0 19.584034 15.876596 35.462676 35.4637 35.462676l377.902886 0 0 376.87958c0 19.589151 15.876596 35.467793 35.4637 35.467793s35.464723-15.878642 35.464723-35.467793L547.4637 547.461653l375.85525 0c19.587104 0 35.464723-15.878642 35.464723-35.462676C958.784696 492.410849 942.906054 476.532207 923.31895 476.532207z" fill="#ffffff"></path></g></g></svg>