<?xml version="1.0" standalone="no"?><!DOCTYPE svg PUBLIC "-//W3C//DTD SVG 1.1//EN" "http://www.w3.org/Graphics/SVG/1.1/DTD/svg11.dtd"><svg width="16" height="16" viewBox="0 0 16 16" version="1.1" xmlns="http://www.w3.org/2000/svg" xmlns:xlink="http://www.w3.org/1999/xlink"><defs><style type="text/css"><![CDATA[
@font-face { font-family: ifont; src: url("//at.alicdn.com/t/font_1442373896_4754455.eot?#iefix") format("embedded-opentype"), url("//at.alicdn.com/t/font_1442373896_4754455.woff") format("woff"), url("//at.alicdn.com/t/font_1442373896_4754455.ttf") format("truetype"), url("//at.alicdn.com/t/font_1442373896_4754455.svg#ifont") format("svg"); }

]]></style></defs><g class="transform-group"><g transform="scale(0.015625, 0.015625)"><path d="M461.312 919.424C411.296 865.152 158.4 593.472 158.4 417.472c0-194.976 158.624-353.6 353.6-353.6s353.6 158.624 353.6 353.6c0 175.648-252.192 446.304-302.784 501.792C511.328 973.728 511.328 973.728 461.312 919.424zM512 127.872c-159.68 0-289.6 129.92-289.6 289.6 0 150.848 178.912 343.36 285.792 458.4L512 879.936l3.936-4.224c106.848-115.104 285.696-307.712 285.696-458.24C801.6 257.792 671.68 127.872 512 127.872zM512 592.96c-95.584 0-173.344-77.76-173.344-173.344 0-95.552 77.76-173.312 173.344-173.312s173.344 77.76 173.344 173.312C685.344 515.232 607.584 592.96 512 592.96zM512 310.304c-60.288 0-109.344 49.024-109.344 109.312S451.712 528.96 512 528.96s109.344-49.056 109.344-109.344S572.288 310.304 512 310.304z" fill="#5074d7"></path></g></g></svg>