<?xml version="1.0" standalone="no"?><!DOCTYPE svg PUBLIC "-//W3C//DTD SVG 1.1//EN" "http://www.w3.org/Graphics/SVG/1.1/DTD/svg11.dtd"><svg width="16" height="16" viewBox="0 0 16 16" version="1.1" xmlns="http://www.w3.org/2000/svg" xmlns:xlink="http://www.w3.org/1999/xlink"><defs><style type="text/css"><![CDATA[
@font-face { font-family: ifont; src: url("//at.alicdn.com/t/font_1442373896_4754455.eot?#iefix") format("embedded-opentype"), url("//at.alicdn.com/t/font_1442373896_4754455.woff") format("woff"), url("//at.alicdn.com/t/font_1442373896_4754455.ttf") format("truetype"), url("//at.alicdn.com/t/font_1442373896_4754455.svg#ifont") format("svg"); }

]]></style></defs><g class="transform-group"><g transform="scale(0.015625, 0.015625)"><path d="M458.65249 920.540673c-49.983391-54.248531-302.740022-325.750085-302.740022-501.663584 0.033769-194.851826 158.547992-353.36912 353.403912-353.36912 194.884572 0 353.398796 158.517293 353.398796 353.402889 0 175.526689-252.048503 446.038706-302.614156 501.501902C508.676813 974.822974 508.676813 974.822974 458.65249 920.540673L458.65249 920.540673 458.65249 920.540673zM509.317403 111.972211c-168.391175 0-305.404712 137.01456-305.404712 305.399595 0 159.095461 188.671057 362.086665 301.394375 483.402685l4.010337 4.293793 4.164856-4.455475C626.176924 779.23232 814.780443 576.114227 814.780443 417.370783 814.715975 248.986771 677.73109 111.972211 509.317403 111.972211L509.317403 111.972211 509.317403 111.972211zM509.317403 594.284051c-95.52461 0-173.260066-77.707826-173.260066-173.260066 0-95.489818 77.706803-173.226297 173.260066-173.226297 95.517447 0 173.253926 77.706803 173.253926 173.226297C682.570305 516.611018 604.864526 594.284051 509.317403 594.284051L509.317403 594.284051 509.317403 594.284051zM509.317403 297.435203c-68.828598 0-124.811634 55.949266-124.811634 124.776841s55.983036 124.806517 124.811634 124.806517c68.827575 0 124.805494-56.012711 124.805494-124.806517C634.151549 353.384469 578.144978 297.435203 509.317403 297.435203L509.317403 297.435203 509.317403 297.435203zM509.317403 297.435203" fill="#ffffff"></path></g></g></svg>