<?xml version="1.0" standalone="no"?><!DOCTYPE svg PUBLIC "-//W3C//DTD SVG 1.1//EN" "http://www.w3.org/Graphics/SVG/1.1/DTD/svg11.dtd"><svg width="16" height="16" viewBox="0 0 16 16" version="1.1" xmlns="http://www.w3.org/2000/svg" xmlns:xlink="http://www.w3.org/1999/xlink"><defs><style type="text/css"><![CDATA[
@font-face { font-family: ifont; src: url("//at.alicdn.com/t/font_1442373896_4754455.eot?#iefix") format("embedded-opentype"), url("//at.alicdn.com/t/font_1442373896_4754455.woff") format("woff"), url("//at.alicdn.com/t/font_1442373896_4754455.ttf") format("truetype"), url("//at.alicdn.com/t/font_1442373896_4754455.svg#ifont") format("svg"); }

]]></style></defs><g class="transform-group"><g transform="scale(0.015625, 0.015625)"><path d="M513.282714 67.879993c-244.821915 0-443.289082 198.467167-443.289082 443.289082s198.467167 443.289082 443.289082 443.289082S956.571796 755.99099 956.571796 511.169075 758.104629 67.879993 513.282714 67.879993zM510.927063 901.537877c-214.165708 0-387.780861-173.615153-387.780861-387.779837s173.615153-387.779837 387.780861-387.779837c214.164684 0 387.779837 173.615153 387.779837 387.779837S725.091748 901.537877 510.927063 901.537877zM510.031 593.072c86.318 0 156.292-118.386 156.292-264.425 0-19.868-1.299-39.221-3.754-57.837h-305.075c-2.455 18.615-3.753 37.97-3.753 57.837 0 146.039 69.974 264.425 156.291 264.425zM432.177 300.703c0 0-12.984 184.385 77.854 264.458-116.809-16.014-112.912-246.278-115.942-264.458h38.088zM296.514 410.819c-13.716-84.813 47.312-85.049 47.312-85.049v-33.231c0 0-78.334-3.379-78.334 103.636 11.309 93.497 64.816 141.935 104.806 116.872l-14.081-25.627c0 0-40.552 12.954-59.703-76.6zM750.978 396.175c0-107.016-78.334-103.636-78.334-103.636v33.231c0 0 61.028 0.236 47.311 85.049-19.15 89.555-59.702 76.6-59.702 76.6l-14.081 25.627c39.989 25.063 93.497-23.375 104.806-116.872zM481.818 633.579c0 14.153 11.474 25.627 25.627 25.627s25.627-11.474 25.627-25.628c0-14.153-11.474-25.627-25.627-25.627-14.153 0-25.627 11.474-25.627 25.627zM436.197 689.057v6.197c0 12.442 10.087 22.527 22.529 22.527h101.383c12.443 0 22.529-10.087 22.529-22.527v-6.197c0-12.443-10.088-22.529-22.529-22.529h-101.383c-12.443-0.001-22.529 10.086-22.529 22.529zM597.846 727.267h-188.122c-12.443 0-22.529 10.088-22.529 22.529v16.987h233.182v-16.987c0-12.442-10.088-22.529-22.53-22.529z" fill="#efb336"></path></g></g></svg>