<?xml version="1.0" standalone="no"?><!DOCTYPE svg PUBLIC "-//W3C//DTD SVG 1.1//EN" "http://www.w3.org/Graphics/SVG/1.1/DTD/svg11.dtd"><svg width="16" height="16" viewBox="0 0 16 16" version="1.1" xmlns="http://www.w3.org/2000/svg" xmlns:xlink="http://www.w3.org/1999/xlink"><defs><style type="text/css"><![CDATA[
@font-face { font-family: ifont; src: url("//at.alicdn.com/t/font_1442373896_4754455.eot?#iefix") format("embedded-opentype"), url("//at.alicdn.com/t/font_1442373896_4754455.woff") format("woff"), url("//at.alicdn.com/t/font_1442373896_4754455.ttf") format("truetype"), url("//at.alicdn.com/t/font_1442373896_4754455.svg#ifont") format("svg"); }

]]></style></defs><g class="transform-group"><g transform="scale(0.015625, 0.015625)"><path d="M511.92888 958.920796c-102.379739 0-203.089441-75.861782-364.446409-225.38012-40.703027-38.46301-66.013483-107.854427-66.297962-150.157905L81.184509 224.056985c-0.070608-48.1353 38.642089-95.484701 90.152253-110.061698 219.797985-65.764819 461.175451-65.906036 681.682587 0 50.232055 14.363126 89.797166 62.709227 89.797166 110.061698l0 359.111914c-0.248663 42.587957-25.594935 112.049982-66.118883 150.157905C715.1974 882.986359 614.449835 958.920796 511.92888 958.920796L511.92888 958.920796zM512.070096 100.772124c-111.766526 0-222.215034 16.066931-328.327794 47.847751-34.481326 9.812483-62.281485 43.584658-62.210877 75.363432l0 359.2562c0.179079 34.695197 22.856567 94.631264 54.995545 125.060297 153.35676 142.054343 247.382227 214.21892 335.400886 214.21892 88.160899 0 182.224228-72.235185 335.759043-214.429721 31.993668-30.145577 54.602595-90.154299 54.778604-125.06132L902.465504 224.056985c0-31.28247-28.333302-65.837474-61.85272-75.436086C734.213499 116.839055 623.799784 100.772124 512.070096 100.772124L512.070096 100.772124zM511.92888 849.715605c-64.62588 0-172.624593-94.986351-277.707906-192.320167-15.641235-14.859429-31.708166-55.81112-32.027437-74.580602L202.193537 232.943376c0-7.891737 5.687536-14.860453 14.005992-17.277502 193.065134-56.024991 400.599817-55.740512 591.601966-0.070608 8.355295 2.416026 14.005992 9.384741 14.005992 17.274432l0 350.298178c-0.320295 18.84009-16.741289 59.792804-32.456203 74.653257C684.090938 755.225557 576.591599 849.715605 511.92888 849.715605L511.92888 849.715605zM242.541477 246.309802l0 336.219531c0.176009 10.948353 13.328563 42.587957 20.687158 49.554626 58.513672 54.1769 195.661262 181.230598 248.700245 181.230598 53.110615 0 189.510168-126.269845 247.775176-180.233897 8.636704-8.105608 21.578458-40.099277 21.757536-50.196239L781.461593 246.239194C606.98584 198.174502 418.789597 197.963701 242.541477 246.309802L242.541477 246.309802zM508.049526 559.486524 470.703967 559.486524 347.952248 388.142088c-3.466961-4.834098-6.251378-9.620102-8.352225-14.361079l-0.945535 0c0.839111 4.930289 1.260713 15.214517 1.260713 30.855752l0 154.850787-31.200606 0L308.714596 339.227028l39.551808 0 119.443369 168.358429c5.67321 7.963369 9.033747 13.034874 10.084683 15.21554l0.629333 0c-1.050935-6.256494-1.574868-16.968463-1.574868-32.135908L476.84892 339.227028l31.199583 0L508.048503 559.486524zM555.479769 482.559481c0-25.972535 8.037047-46.473451 24.110117-61.499679 16.072047-15.024182 37.869492-22.537296 65.393359-22.537296 26.157753 0 46.666856 7.229658 61.533448 21.684882 14.863523 14.45727 22.297842 34.435277 22.297842 59.935044 0 24.836665-7.933693 44.887326-23.794939 60.148915-15.863293 15.263635-37.135782 22.893406-63.817468 22.893406-26.054399 0-46.854121-7.395434-62.400189-22.183232C563.252803 526.213723 555.479769 506.733043 555.479769 482.559481zM586.995553 481.706043c0 18.107403 5.066389 32.374338 15.205307 42.800805 10.136871 10.428513 23.76731 15.641235 40.891316 15.641235 17.647939 0 31.094182-5.095042 40.339754-15.286148 9.242502-10.18906 13.866822-24.813129 13.866822-43.86709 0-19.147082-4.624321-33.842783-13.866822-44.080961-9.245572-10.238179-22.691815-15.356756-40.339754-15.356756-17.33276 0-31.018457 5.357008-41.048905 16.067954C592.009753 448.339098 586.995553 463.031728 586.995553 481.706043z" fill="#5074d7"></path></g></g></svg>