<?xml version="1.0" standalone="no"?><!DOCTYPE svg PUBLIC "-//W3C//DTD SVG 1.1//EN" "http://www.w3.org/Graphics/SVG/1.1/DTD/svg11.dtd"><svg width="16" height="16" viewBox="0 0 16 16" version="1.1" xmlns="http://www.w3.org/2000/svg" xmlns:xlink="http://www.w3.org/1999/xlink"><defs><style type="text/css"><![CDATA[
@font-face { font-family: ifont; src: url("//at.alicdn.com/t/font_1442373896_4754455.eot?#iefix") format("embedded-opentype"), url("//at.alicdn.com/t/font_1442373896_4754455.woff") format("woff"), url("//at.alicdn.com/t/font_1442373896_4754455.ttf") format("truetype"), url("//at.alicdn.com/t/font_1442373896_4754455.svg#ifont") format("svg"); }

]]></style></defs><g class="transform-group"><g transform="scale(0.015625, 0.015625)"><path d="M100.953293 456.314747l56.92681-175.317934c131.173786 46.100968 226.489454 86.042655 285.917327 119.764688-15.672577-148.974963-23.936113-251.421216-24.758885-307.401182l179.532102 0c-2.500039 81.4695-11.982383 183.519734-28.477732 306.150702 84.887751-42.777269 182.093542-82.292238 291.6798-118.514207l56.835732 175.317934c-104.647579 34.453696-207.188085 57.412594-307.658358 68.876694 50.219786 43.479257 121.050827 120.953769 212.524846 232.456283L675.195884 862.197894c-47.809801-64.759933-104.309875-152.907529-169.50022-264.439718-61.075463 115.618251-114.709138 203.764823-160.903073 264.439718L198.739323 757.647723c95.682027-117.234051 164.165507-194.708564 205.45044-232.456283C297.745184 504.70178 196.66602 481.742882 100.953293 456.314747z" fill="#eb4f38"></path></g></g></svg>