<?xml version="1.0" standalone="no"?><!DOCTYPE svg PUBLIC "-//W3C//DTD SVG 1.1//EN" "http://www.w3.org/Graphics/SVG/1.1/DTD/svg11.dtd"><svg width="16" height="16" viewBox="0 0 16 16" version="1.1" xmlns="http://www.w3.org/2000/svg" xmlns:xlink="http://www.w3.org/1999/xlink"><defs><style type="text/css"><![CDATA[
@font-face { font-family: ifont; src: url("//at.alicdn.com/t/font_1442373896_4754455.eot?#iefix") format("embedded-opentype"), url("//at.alicdn.com/t/font_1442373896_4754455.woff") format("woff"), url("//at.alicdn.com/t/font_1442373896_4754455.ttf") format("truetype"), url("//at.alicdn.com/t/font_1442373896_4754455.svg#ifont") format("svg"); }

]]></style></defs><g class="transform-group"><g transform="scale(0.015625, 0.015625)"><path d="M512 0C229.2224 0 0 229.2224 0 512 0 794.7776 229.2224 1024 512 1024 794.7264 1024 1023.9488 794.7776 1023.9488 512 1023.9488 229.2224 794.7264 0 512 0ZM801.28 370.3808 449.024 722.6368C448.4608 723.2 448.3072 723.9168 447.6928 724.48 427.7248 744.4992 397.4144 746.6496 380.1088 729.2928L376.4224 725.6064C375.9104 725.1456 375.2448 724.992 374.7328 724.48 374.2208 724.0192 374.0672 723.3536 373.6064 722.8416L219.392 568.576C202.0352 551.2704 204.1856 520.96 224.2048 500.992 244.1728 480.9728 274.432 478.8224 291.7888 496.1792L411.2384 615.6288 728.8832 297.984C748.8512 277.9648 781.2608 277.9648 801.28 297.984 821.2992 317.952 821.2992 350.3616 801.28 370.3808Z" fill="#5074d7"></path></g></g></svg>