<?xml version="1.0" standalone="no"?><!DOCTYPE svg PUBLIC "-//W3C//DTD SVG 1.1//EN" "http://www.w3.org/Graphics/SVG/1.1/DTD/svg11.dtd"><svg width="200" height="200" viewBox="0 0 200 200" version="1.1" xmlns="http://www.w3.org/2000/svg" xmlns:xlink="http://www.w3.org/1999/xlink"><defs><style type="text/css"><![CDATA[
@font-face { font-family: ifont; src: url("//at.alicdn.com/t/font_1442373896_4754455.eot?#iefix") format("embedded-opentype"), url("//at.alicdn.com/t/font_1442373896_4754455.woff") format("woff"), url("//at.alicdn.com/t/font_1442373896_4754455.ttf") format("truetype"), url("//at.alicdn.com/t/font_1442373896_4754455.svg#ifont") format("svg"); }

]]></style></defs><g class="transform-group"><g transform="scale(0.1953125, 0.1953125)"><path d="M629.955994 486.518652c44.718481-34.902928 73.609485-88.977497 73.609485-149.733233 0-105.009635-85.989443-190.453656-191.719486-190.453656s-191.719486 85.444021-191.719486 190.453656c0 60.755736 28.885887 114.829282 73.608461 149.733233-117.862361 46.786583-201.415312 161.14105-201.415312 294.66102l0 63.466474c0 17.553795 14.295588 31.750121 31.943526 31.750121l575.159482 0c17.653055 0 31.94455-14.196327 31.94455-31.750121l0-63.466474C831.368236 647.607514 747.815285 533.304212 629.955994 486.518652L629.955994 486.518652 629.955994 486.518652 629.955994 486.518652zM373.152187 336.533686c0-75.994812 62.197574-137.773853 138.693806-137.773853 76.492138 0 138.692782 61.780065 138.692782 137.773853 0 75.976392-62.200644 137.773853-138.692782 137.773853C435.349761 474.307539 373.152187 412.534638 373.152187 336.533686L373.152187 336.533686 373.152187 336.533686 373.152187 336.533686zM783.316847 824.314075 240.347508 824.314075l0-33.712823c0-148.70788 121.789811-269.705652 271.52202-269.705652 149.680021 0 271.447319 120.997772 271.447319 269.705652L783.316847 824.314075 783.316847 824.314075 783.316847 824.314075 783.316847 824.314075zM264.212032 515.949962l6.240121-1.488911c13.400195-4.453429 22.944572-16.136515 22.944572-29.858028 0-13.252839-8.92323-24.585955-21.574365-29.360701-34.212196-15.438621-56.283888-49.322335-56.283888-86.662779 0-42.310641 36.767392-77.957513 75.250868-90.314958 6.736425-20.658506 16.927531-39.776935 29.904077-56.68093 2.26253-3.726881 4.65195-7.383154 7.136537-10.962679-2.583848-0.12382-5.0449-0.76748-7.703449-0.76748-88.082104 0-159.774937 71.195505-159.774937 158.727071 0 40.175001 15.409968 77.838809 41.564651 106.47808C118.733707 517.865591 64.489268 603.481528 64.489268 700.339506l0 49.095161c0 17.553795 14.295588 31.745005 31.943526 31.745005l57.250912 0c0-21.750373 2.238994-35.694967 6.439666-56.208163l-40.446177 0 0-24.632004C119.677195 612.604302 179.042257 537.306362 264.212032 515.949962L264.212032 515.949962 264.212032 515.949962 264.212032 515.949962zM821.42477 475.057623c26.155706-28.639271 41.565674-66.303079 41.565674-106.47808 0-87.532589-71.67032-158.755724-159.77596-158.755724-2.660596 0-5.120624 0.648776-7.704472 0.771573 2.484587 3.579525 4.875031 7.235798 7.136537 10.962679 12.978593 16.903995 23.167652 36.022425 29.881564 56.682977 38.483476 12.352329 80.570014 48.004317 80.570014 90.313935 0 37.341466-22.101367 71.247694-56.283888 86.663802-12.655228 4.76963-21.579481 16.10684-21.579481 29.359678 0 13.723559 9.573029 25.406646 22.945595 29.853935l6.240121 1.493004c85.198427 21.379936 144.535861 96.65434 144.535861 184.41308l0 24.632004-45.790906 0c4.225231 20.513196 6.439666 34.45779 6.439666 56.208163l57.250912 0c17.676591 0 31.94455-14.19121 31.94455-31.745005l0-49.095161C958.852746 603.481528 904.608308 517.865591 821.42477 475.057623L821.42477 475.057623 821.42477 475.057623 821.42477 475.057623zM821.42477 475.057623" fill="#5074d7"></path></g></g></svg>