<?xml version="1.0" standalone="no"?><!DOCTYPE svg PUBLIC "-//W3C//DTD SVG 1.1//EN" "http://www.w3.org/Graphics/SVG/1.1/DTD/svg11.dtd"><svg width="16" height="16" viewBox="0 0 16 16" version="1.1" xmlns="http://www.w3.org/2000/svg" xmlns:xlink="http://www.w3.org/1999/xlink"><defs><style type="text/css"><![CDATA[
@font-face { font-family: ifont; src: url("//at.alicdn.com/t/font_1442373896_4754455.eot?#iefix") format("embedded-opentype"), url("//at.alicdn.com/t/font_1442373896_4754455.woff") format("woff"), url("//at.alicdn.com/t/font_1442373896_4754455.ttf") format("truetype"), url("//at.alicdn.com/t/font_1442373896_4754455.svg#ifont") format("svg"); }

]]></style></defs><g class="transform-group"><g transform="scale(0.015625, 0.015625)"><path d="M759.956813 493.928413l86.441744 0 0 46.209438-86.441744 0L759.956813 493.928413 759.956813 493.928413zM759.956813 493.928413M517.809821 713.760167l48.387034 0 0 82.483596-48.387034 0L517.809821 713.760167 517.809821 713.760167zM517.809821 713.760167M766.129396 335.911516l-61.207014 58.320267-34.228569-32.649608 61.142545-58.32436L766.129396 335.911516 766.129396 335.911516zM766.129396 335.911516M731.836359 730.808448l-61.142545-58.320267 34.228569-32.685423 61.207014 58.320267L731.836359 730.808448 731.836359 730.808448zM731.836359 730.808448M403.850349 641.780809 518.680655 532.183691 518.680655 310.676785l73.489758 0 0 249.191432c-5.100158 4.900613-136.307456 131.47438-136.307456 131.47438L403.850349 641.780809 403.850349 641.780809zM403.850349 641.780809M562.035068 133.560902l0 66.443271c180.001607 0 326.510402 139.765207 326.510402 311.544549 0 171.744549-146.508795 311.505663-326.510402 311.505663-165.232229 0-302.143435-117.716029-323.553047-269.829472l49.662073 46.744627 49.330522-47.01171L201.30019 423.093111 64.856635 552.957831l49.262984 47.01171 53.691853-51.173496c19.662829 190.970426 188.923814 340.737428 394.22462 340.737428 218.455407 0 396.243603-169.564907 396.243603-377.983727C958.211133 303.125809 780.491499 133.560902 562.035068 133.560902L562.035068 133.560902zM562.035068 133.560902" fill="#5074d7"></path></g></g></svg>