<?xml version="1.0" standalone="no"?><!DOCTYPE svg PUBLIC "-//W3C//DTD SVG 1.1//EN" "http://www.w3.org/Graphics/SVG/1.1/DTD/svg11.dtd"><svg width="16" height="16" viewBox="0 0 16 16" version="1.1" xmlns="http://www.w3.org/2000/svg" xmlns:xlink="http://www.w3.org/1999/xlink"><defs><style type="text/css"><![CDATA[
@font-face { font-family: ifont; src: url("//at.alicdn.com/t/font_1442373896_4754455.eot?#iefix") format("embedded-opentype"), url("//at.alicdn.com/t/font_1442373896_4754455.woff") format("woff"), url("//at.alicdn.com/t/font_1442373896_4754455.ttf") format("truetype"), url("//at.alicdn.com/t/font_1442373896_4754455.svg#ifont") format("svg"); }

]]></style></defs><g class="transform-group"><g transform="scale(0.015625, 0.015625)"><path d="M693.352883 126.340453 329.308633 126.340453c-44.685735 0-80.910774 36.22197-80.910774 80.901565l0 606.755084c0 44.677549 36.224016 80.908728 80.910774 80.908728l364.04425 0c44.676525 0 80.901565-36.231179 80.901565-80.908728L774.254447 207.240995C774.254447 162.562423 738.030431 126.340453 693.352883 126.340453zM572.002071 834.222749 450.650235 834.222749l0-40.450271 121.350812 0L572.001047 834.222749zM713.57853 733.097584c0 11.156084-9.046027 20.224624-20.225647 20.224624L329.308633 753.322208c-11.178597 0-20.225647-9.067516-20.225647-20.224624L309.082986 207.240995c0-11.180644 9.04705-20.225647 20.225647-20.225647l364.04425 0c11.17962 0 20.225647 9.045003 20.225647 20.225647L713.57853 733.097584z" fill="#5074d7"></path></g></g></svg>