<?xml version="1.0" standalone="no"?><!DOCTYPE svg PUBLIC "-//W3C//DTD SVG 1.1//EN" "http://www.w3.org/Graphics/SVG/1.1/DTD/svg11.dtd"><svg width="16" height="16" viewBox="0 0 16 16" version="1.1" xmlns="http://www.w3.org/2000/svg" xmlns:xlink="http://www.w3.org/1999/xlink"><defs><style type="text/css"><![CDATA[
@font-face { font-family: ifont; src: url("//at.alicdn.com/t/font_1442373896_4754455.eot?#iefix") format("embedded-opentype"), url("//at.alicdn.com/t/font_1442373896_4754455.woff") format("woff"), url("//at.alicdn.com/t/font_1442373896_4754455.ttf") format("truetype"), url("//at.alicdn.com/t/font_1442373896_4754455.svg#ifont") format("svg"); }

]]></style></defs><g class="transform-group"><g transform="scale(0.015625, 0.015625)"><path d="M921.745408 890.734592 628.006912 596.996096c100.204544-116.133888 95.511552-292.040704-14.687232-402.189312-55.927808-55.9104-130.2784-86.69696-209.378304-86.69696-79.099904 0-153.450496 30.78656-209.378304 86.69696-115.429376 115.377152-115.429376 303.172608 0 418.54976 55.927808 55.9104 130.279424 86.69696 209.378304 86.69696 72.699904 0 141.193216-26.302464 195.244032-73.95328l293.597184 293.597184L921.745408 890.734592zM403.958784 660.615168c-68.557824-0.016384-132.998144-26.699776-181.465088-75.132928-100.038656-100.005888-100.038656-262.759424 0-362.765312 48.484352-48.45056 112.907264-75.132928 181.466112-75.132928 68.557824 0 132.98176 26.682368 181.465088 75.132928 100.056064 100.005888 100.056064 262.7584 0 362.765312C536.940544 633.931776 472.517632 660.615168 403.958784 660.615168z" fill="#272636"></path></g></g></svg>