<?xml version="1.0" standalone="no"?><!DOCTYPE svg PUBLIC "-//W3C//DTD SVG 1.1//EN" "http://www.w3.org/Graphics/SVG/1.1/DTD/svg11.dtd"><svg width="16" height="16" viewBox="0 0 16 16" version="1.1" xmlns="http://www.w3.org/2000/svg" xmlns:xlink="http://www.w3.org/1999/xlink"><defs><style type="text/css"><![CDATA[
@font-face { font-family: ifont; src: url("//at.alicdn.com/t/font_1442373896_4754455.eot?#iefix") format("embedded-opentype"), url("//at.alicdn.com/t/font_1442373896_4754455.woff") format("woff"), url("//at.alicdn.com/t/font_1442373896_4754455.ttf") format("truetype"), url("//at.alicdn.com/t/font_1442373896_4754455.svg#ifont") format("svg"); }

]]></style></defs><g class="transform-group"><g transform="scale(0.015625, 0.015625)"><path d="M508.298 56.163c-250.516 0-453.632 203.116-453.632 453.632 0 250.516 203.116 453.63 453.632 453.63 250.517 0 453.633-203.115 453.633-453.63C961.931 259.279 758.814 56.163 508.298 56.163zM508.298 901.622c-216.054 0-391.827-175.772-391.827-391.826 0-216.054 175.772-391.828 391.827-391.828 216.056 0 391.827 175.772 391.827 391.827C900.125 725.849 724.352 901.622 508.298 901.622zM487.298 527.598 281.482 527.598 281.482 585.4l264.619 0L546.101 208.924l-58.804 0L487.297 527.598z" fill="#5074d7"></path></g></g></svg>