<?xml version="1.0" standalone="no"?><!DOCTYPE svg PUBLIC "-//W3C//DTD SVG 1.1//EN" "http://www.w3.org/Graphics/SVG/1.1/DTD/svg11.dtd"><svg width="16" height="16" viewBox="0 0 16 16" version="1.1" xmlns="http://www.w3.org/2000/svg" xmlns:xlink="http://www.w3.org/1999/xlink"><defs><style type="text/css"><![CDATA[
@font-face { font-family: ifont; src: url("//at.alicdn.com/t/font_1442373896_4754455.eot?#iefix") format("embedded-opentype"), url("//at.alicdn.com/t/font_1442373896_4754455.woff") format("woff"), url("//at.alicdn.com/t/font_1442373896_4754455.ttf") format("truetype"), url("//at.alicdn.com/t/font_1442373896_4754455.svg#ifont") format("svg"); }

]]></style></defs><g class="transform-group"><g transform="scale(0.015625, 0.015625)"><path d="M833.536 320.3072 190.464 320.3072c-63.6928 0-115.712 52.0192-115.712 115.712l0 151.9616c0 63.6928 52.0192 115.712 115.712 115.712l643.072 0c63.6928 0 115.712-52.0192 115.712-115.712l0-151.9616C949.248 372.3264 897.2288 320.3072 833.536 320.3072zM916.6848 588.8c0 48.3328-39.5264 87.8592-87.8592 87.8592L195.1744 676.6592c-48.3328 0-87.8592-39.5264-87.8592-87.8592l0-153.8048c0-48.3328 39.5264-87.8592 87.8592-87.8592l633.6512 0c48.3328 0 87.8592 39.5264 87.8592 87.8592L916.6848 588.8z" fill="#272636"></path></g></g></svg>