<?xml version="1.0" standalone="no"?><!DOCTYPE svg PUBLIC "-//W3C//DTD SVG 1.1//EN" "http://www.w3.org/Graphics/SVG/1.1/DTD/svg11.dtd"><svg width="16" height="16" viewBox="0 0 16 16" version="1.1" xmlns="http://www.w3.org/2000/svg" xmlns:xlink="http://www.w3.org/1999/xlink"><defs><style type="text/css"><![CDATA[
@font-face { font-family: ifont; src: url("//at.alicdn.com/t/font_1442373896_4754455.eot?#iefix") format("embedded-opentype"), url("//at.alicdn.com/t/font_1442373896_4754455.woff") format("woff"), url("//at.alicdn.com/t/font_1442373896_4754455.ttf") format("truetype"), url("//at.alicdn.com/t/font_1442373896_4754455.svg#ifont") format("svg"); }

]]></style></defs><g class="transform-group"><g transform="scale(0.015625, 0.015625)"><path d="M512 25.4464c-272.554667 0-493.5168 220.945067-493.5168 493.5168 0 272.554667 220.945067 493.5168 493.5168 493.5168 272.554667 0 493.5168-220.945067 493.5168-493.5168C1005.5168 246.391467 784.554667 25.4464 512 25.4464zM512 981.179733c-255.2832 0-462.216533-206.9504-462.216533-462.216533S256.7168 56.7296 512 56.7296 974.216533 263.68 974.216533 518.946133 767.2832 981.179733 512 981.179733zM225.092267 325.0688l0 437.333333 108.0832 0 6.365867 0 21.316267 0 0-34.133333c-1.262933-18.7392-2.56-36.027733-3.6864-46.848-5.0176-48.674133-57.480533-113.066667-57.480533-113.066667s102.826667-38.8608 134.0416-61.559467c31.317333-22.766933 94.907733-108.151467 94.907733-108.151467s61.166933 83.387733 91.392 107.52c30.225067 24.132267 137.557333 66.901333 137.557333 66.901333s-50.568533 59.665067-61.2352 110.2336c-2.423467 11.485867-5.802667 31.0272-9.250133 52.0704l-1.2288 0 0 27.016533 19.165867 0 12.1344 0 113.783467 0L830.958933 325.0688 225.092267 325.0688zM801.9456 735.368533 709.461333 735.368533c3.157333-18.926933 6.161067-35.874133 8.413867-46.574933 12.0832-57.2416 69.341867-124.808533 69.341867-124.808533s-121.514667-48.401067-155.733333-75.7248-103.4752-121.719467-103.4752-121.719467-72.004267 96.6656-107.451733 122.436267c-35.328 25.685333-151.7568 69.6832-151.7568 69.6832s59.374933 72.891733 65.0752 128c1.1776 11.4176 2.542933 29.184 3.874133 48.708267l-83.6608 0L254.088533 352.085333l547.857067 0L801.9456 735.368533z" fill="#f78a5c"></path></g></g></svg>