<?xml version="1.0" standalone="no"?><!DOCTYPE svg PUBLIC "-//W3C//DTD SVG 1.1//EN" "http://www.w3.org/Graphics/SVG/1.1/DTD/svg11.dtd"><svg width="16" height="16" viewBox="0 0 16 16" version="1.1" xmlns="http://www.w3.org/2000/svg" xmlns:xlink="http://www.w3.org/1999/xlink"><defs><style type="text/css"><![CDATA[
@font-face { font-family: ifont; src: url("//at.alicdn.com/t/font_1442373896_4754455.eot?#iefix") format("embedded-opentype"), url("//at.alicdn.com/t/font_1442373896_4754455.woff") format("woff"), url("//at.alicdn.com/t/font_1442373896_4754455.ttf") format("truetype"), url("//at.alicdn.com/t/font_1442373896_4754455.svg#ifont") format("svg"); }

]]></style></defs><g class="transform-group"><g transform="scale(0.015625, 0.015625)"><path d="M327.377142 435.682847l233.317906 0c7.446599 0 13.484106-6.037507 13.484106-13.484106L574.179155 412.733159c0-7.451716-6.037507-13.488199-13.484106-13.488199L327.377142 399.24496c-7.446599 0-13.484106 6.037507-13.484106 13.488199l0 9.465582C313.893037 429.64534 319.930543 435.682847 327.377142 435.682847zM684.998099 513.25355 327.377142 513.25355c-7.446599 0-13.484106 6.037507-13.484106 13.488199l0 9.465582c0 7.447623 6.037507 13.485129 13.484106 13.485129l357.620957 0c7.447623 0 13.485129-6.037507 13.485129-13.485129l0-9.465582C698.483228 519.291057 692.445722 513.25355 684.998099 513.25355zM684.998099 627.263164 327.377142 627.263164c-7.446599 0-13.484106 6.037507-13.484106 13.488199l0 9.465582c0 7.446599 6.037507 13.484106 13.484106 13.484106l357.620957 0c7.447623 0 13.485129-6.037507 13.485129-13.484106l0-9.465582C698.483228 633.30067 692.445722 627.263164 684.998099 627.263164zM770.926144 148.910495 253.074879 148.910495c-57.435107 0-104.162338 46.728254-104.162338 104.165408l0 517.851265c0 57.435107 46.727231 104.161315 104.162338 104.161315l517.851265 0c57.435107 0 104.161315-46.726208 104.161315-104.161315L875.087459 253.075903C875.087459 195.639772 828.361251 148.910495 770.926144 148.910495zM770.926144 839.379189 253.074879 839.379189c-37.744649 0-68.452022-30.707372-68.452022-68.452022L184.622858 253.075903c0-37.746696 30.707372-68.455091 68.452022-68.455091l432.531064 0L685.605943 350.393345c0 0 106.381889 0 153.771199 0l0 420.533822C839.377142 808.671817 808.66977 839.379189 770.926144 839.379189z" fill="#5074d7"></path></g></g></svg>