<?xml version="1.0" standalone="no"?><!DOCTYPE svg PUBLIC "-//W3C//DTD SVG 1.1//EN" "http://www.w3.org/Graphics/SVG/1.1/DTD/svg11.dtd"><svg width="16" height="16" viewBox="0 0 16 16" version="1.1" xmlns="http://www.w3.org/2000/svg" xmlns:xlink="http://www.w3.org/1999/xlink"><defs><style type="text/css"><![CDATA[
@font-face { font-family: ifont; src: url("//at.alicdn.com/t/font_1442373896_4754455.eot?#iefix") format("embedded-opentype"), url("//at.alicdn.com/t/font_1442373896_4754455.woff") format("woff"), url("//at.alicdn.com/t/font_1442373896_4754455.ttf") format("truetype"), url("//at.alicdn.com/t/font_1442373896_4754455.svg#ifont") format("svg"); }

]]></style></defs><g class="transform-group"><g transform="scale(0.015625, 0.015625)"><path d="M765.259586 140.65753 258.737344 140.65753c-42.497906 0-77.0744 34.577516-77.0744 77.076446l0 588.532047c0 42.49893 34.576493 77.075423 77.0744 77.075423l506.522242 0c42.49893 0 77.075423-34.576493 77.075423-77.075423L842.335009 217.733976C842.330916 175.235047 807.758516 140.65753 765.259586 140.65753L765.259586 140.65753zM798.297027 806.267047c0 18.215874-14.821567 33.037441-33.037441 33.037441L258.737344 839.304488c-18.21485 0-33.036417-14.821567-33.036417-33.037441L225.700927 217.733976c0-18.215874 14.817474-33.037441 33.036417-33.037441l506.522242 0c18.215874 0 33.037441 14.817474 33.037441 33.037441L798.297027 806.267047 798.297027 806.267047zM288.894178 340.161307l68.941162 0 0 44.033889-68.941162 0L288.894178 340.161307 288.894178 340.161307zM288.894178 488.575498l68.941162 0 0 44.037982-68.941162 0L288.894178 488.575498 288.894178 488.575498zM288.894178 637.990482l68.941162 0 0 44.037982-68.941162 0L288.894178 637.990482 288.894178 637.990482zM396.200112 340.161307l338.903663 0 0 44.033889L396.200112 384.195196 396.200112 340.161307 396.200112 340.161307zM396.200112 488.575498l338.903663 0 0 44.037982L396.200112 532.61348 396.200112 488.575498 396.200112 488.575498zM396.200112 636.991736l338.903663 0 0 44.037982L396.200112 681.029718 396.200112 636.991736 396.200112 636.991736zM317.802578 248.165056" fill="#5074d7"></path></g></g></svg>