<?xml version="1.0" standalone="no"?><!DOCTYPE svg PUBLIC "-//W3C//DTD SVG 1.1//EN" "http://www.w3.org/Graphics/SVG/1.1/DTD/svg11.dtd"><svg width="18.3125" height="16" viewBox="0 0 18.3125 16" version="1.1" xmlns="http://www.w3.org/2000/svg" xmlns:xlink="http://www.w3.org/1999/xlink"><defs><style type="text/css"><![CDATA[
@font-face { font-family: ifont; src: url("//at.alicdn.com/t/font_1442373896_4754455.eot?#iefix") format("embedded-opentype"), url("//at.alicdn.com/t/font_1442373896_4754455.woff") format("woff"), url("//at.alicdn.com/t/font_1442373896_4754455.ttf") format("truetype"), url("//at.alicdn.com/t/font_1442373896_4754455.svg#ifont") format("svg"); }

]]></style></defs><g class="transform-group"><g transform="scale(0.015625, 0.015625)"><path d="M805.601336 829.181202 428.205228 829.181202l0-58.41386 401.617462 0 112.24714 112.27079 0-112.27079L1113.366407 770.767342 1113.366407 186.838625l-85.659374 0L1027.707033 128.448414l72.032922 0c39.705757 0 72.004838 32.310906 72.004838 72.016663l0 556.677291c0 39.705757-32.299081 72.038834-72.032922 72.038834l-99.262177 0 0 194.818798L805.601336 829.181202 805.601336 829.181202zM171.296577 700.706183l-99.257742 0c-39.729407 0-72.038834-32.310906-72.038834-72.018141L0 72.010751C0 32.304993 32.309428 0 72.038834 0l813.587421 0c39.729407 0 72.032922 32.309428 72.032922 72.010751L957.659178 628.688042c0 39.705757-32.303515 72.018141-72.032922 72.018141L366.143458 700.706183 171.296577 895.545674 171.296577 700.706183 171.296577 700.706183zM229.680875 754.59563l112.276702-112.282614 557.29513 0L899.252708 58.384299 58.384299 58.384299l0 583.930195L229.680875 642.314494 229.680875 754.59563 229.680875 754.59563zM692.932942 400.953803c-27.916563 0-50.612536-22.69745-50.612536-50.590364 0-27.916563 22.695972-50.612536 50.612536-50.612536 27.887002 0 50.612536 22.695972 50.612536 50.612536C743.545478 378.256352 720.819944 400.953803 692.932942 400.953803L692.932942 400.953803zM478.817764 400.953803c-27.887002 0-50.612536-22.69745-50.612536-50.590364 0-27.916563 22.725534-50.612536 50.612536-50.612536 27.916563 0 50.614014 22.695972 50.614014 50.612536C529.431778 378.256352 506.734327 400.953803 478.817764 400.953803L478.817764 400.953803zM264.704064 400.953803c-27.887002 0-50.618448-22.69745-50.618448-50.590364 0-27.916563 22.725534-50.612536 50.618448-50.612536 27.916563 0 50.612536 22.695972 50.612536 50.612536C315.3166 378.256352 292.620628 400.953803 264.704064 400.953803L264.704064 400.953803zM264.704064 400.953803" fill="#5074d7"></path></g></g></svg>