<?xml version="1.0" standalone="no"?><!DOCTYPE svg PUBLIC "-//W3C//DTD SVG 1.1//EN" "http://www.w3.org/Graphics/SVG/1.1/DTD/svg11.dtd"><svg width="16" height="16" viewBox="0 0 16 16" version="1.1" xmlns="http://www.w3.org/2000/svg" xmlns:xlink="http://www.w3.org/1999/xlink"><defs><style type="text/css"><![CDATA[
@font-face { font-family: ifont; src: url("//at.alicdn.com/t/font_1442373896_4754455.eot?#iefix") format("embedded-opentype"), url("//at.alicdn.com/t/font_1442373896_4754455.woff") format("woff"), url("//at.alicdn.com/t/font_1442373896_4754455.ttf") format("truetype"), url("//at.alicdn.com/t/font_1442373896_4754455.svg#ifont") format("svg"); }

]]></style></defs><g class="transform-group"><g transform="scale(0.015625, 0.015625)"><path d="M511.992325 0.607844c-282.439674 0-511.397273 228.957599-511.397273 511.38704 0 282.443767 228.957599 511.398296 511.397273 511.398296 282.454 0 511.412622-228.954529 511.412622-511.398296C1023.404947 229.564419 794.446325 0.607844 511.992325 0.607844zM511.992325 984.058312C251.276419 984.058312 39.92992 772.72921 39.92992 511.994883 39.92992 251.28614 251.274372 39.941688 511.992325 39.941688c260.708743 0 472.071615 211.344452 472.071615 472.053196C984.065987 772.72921 772.703115 984.058312 511.992325 984.058312zM804.888142 438.123432c-0.100284-5.709025-1.812275-8.114818-7.630794-9.621125-94.754061-24.433482-189.435467-49.13814-284.125059-73.821309-4.057409-1.059122-7.944949-0.952698-11.992125 0.106424-88.62241 22.907733-177.256076 45.76123-265.895883 68.6311-15.33015 3.948939-15.33015 3.932566-15.771195 19.298532 0 1.489934 0.260943 3.051499-0.044002 4.488221-1.641383 7.845689 1.760087 11.237949 9.514701 13.518898 26.27441 7.664563 52.332902 16.102746 78.43335 24.362874 59.179844 18.706037 118.361735 37.413098 177.469947 56.335053 11.319813 3.626597 22.091134 5.709025 34.065863 1.794879 24.479531-8.04114 49.288566-15.133675 74.009597-22.421662 44.010353-12.998035 88.022753-25.977651 132.112923-38.705534 8.733918-2.51324 4.112668-8.903787 4.910846-13.589506 0.843204-4.936429-3.411703-4.39817-6.66991-4.720511-22.019503-2.153036-44.027749-4.363378-66.039066-6.571672-38.182624-3.823072-76.378551-7.648191-114.552989-11.561313-3.707438-0.376577-6.767124 0.556679-10.126638 2.065032-16.452717 7.343245-33.124422 7.379061-49.235354-0.75213-9.450233-4.77577-9.487072-13.017478-0.798179-18.690688 13.904685-9.064446 41.433668-8.401344 54.362118 1.705851 3.01466 2.351558 5.994528 3.320629 9.649777 3.645017 17.22429 1.52575 34.440393 3.105734 51.639101 4.864798 41.973974 4.2897 83.921341 8.81476 125.910665 12.96222 18.131963 1.77646 18.313088 1.454118 18.72548 19.603477 0.099261 4.524037 1.264806 5.617951 5.672186 4.253884 12.343119-3.842515 24.775266-7.379061 37.162388-11.075243C805.47245 458.284611 805.237089 458.266192 804.888142 438.123432zM674.48107 585.801866c-0.019443-20.250206-0.225127-40.501436 0.062422-60.734246 0.081864-5.51255-2.010797-5.995551-6.129604-4.03899-6.947226 3.266393-14.586207 4.129041-21.855774 6.30152-45.852304 13.662161-91.737354 27.215852-137.596821 40.875966-3.297093 0.98749-6.374174 1.113357-9.686616 0.071631-29.40675-9.31618-58.840106-18.525935-88.264253-27.77253-25.806759-8.115841-51.665707-16.087397-77.393671-24.452925-5.573949-1.795902-7.523347-1.670036-7.40362 4.990664 0.404206 21.975501 0.150426 43.947931 0.150426 65.921385l-0.062422 0c0 22.512736 0.098237 45.025473-0.090051 67.51979-0.035816 3.931542 1.14815 6.426363 4.40738 8.707312 11.012821 7.738241 22.663162 14.396895 35.077913 19.586081 67.958788 28.382421 138.350998 34.918277 210.691583 21.561062 33.357735-6.175653 64.360843-18.185174 91.585905-38.723953 4.613064-3.482311 6.795776-7.05672 6.677073-13.051247C674.246733 630.323872 674.489256 608.045473 674.48107 585.801866zM765.635139 590.882582c0.008186-6.966669-2.433422-12.872169-8.553817-16.588817-3.645017-2.225691-3.555989-4.003174-1.715061-7.55814 5.466502-10.629081 2.412956-22.080901-7.79043-27.989471-4.067642-2.367931-4.831029-4.919033-4.795213-8.922207 0.144286-15.242146 0.063445-30.464849 0.063445-46.227858-12.208043 2.708692-12.199856 2.708692-12.208043 13.267165 0 11.236925-0.145309 22.493294 0.044002 33.732266 0.063445 3.446495-1.078565 5.206582-4.208858 6.92983-12.181437 6.677073-15.797801 17.6111-9.595542 29.764907 1.893116 3.716648 1.077541 5.0449-1.948375 7.001461-5.447059 3.518127-8.30106 8.688893-8.330736 15.153118-0.054235 14.505365 0.100284 29.012777-0.098237 43.499723-0.044002 3.645017 1.257643 5.386684 4.774747 6.319939 16.328897 4.362354 32.600489 4.288676 48.967248 0.179079 4.191462-1.042749 5.573949-3.069919 5.492084-7.323802C765.454014 618.385982 765.61672 604.634794 765.635139 590.882582z" fill="#ad73a5"></path></g></g></svg>