<?xml version="1.0" standalone="no"?><!DOCTYPE svg PUBLIC "-//W3C//DTD SVG 1.1//EN" "http://www.w3.org/Graphics/SVG/1.1/DTD/svg11.dtd"><svg width="16" height="16" viewBox="0 0 16 16" version="1.1" xmlns="http://www.w3.org/2000/svg" xmlns:xlink="http://www.w3.org/1999/xlink"><defs><style type="text/css"><![CDATA[
@font-face { font-family: ifont; src: url("//at.alicdn.com/t/font_1442373896_4754455.eot?#iefix") format("embedded-opentype"), url("//at.alicdn.com/t/font_1442373896_4754455.woff") format("woff"), url("//at.alicdn.com/t/font_1442373896_4754455.ttf") format("truetype"), url("//at.alicdn.com/t/font_1442373896_4754455.svg#ifont") format("svg"); }

]]></style></defs><g class="transform-group"><g transform="scale(0.015625, 0.015625)"><path d="M512 962.29182C264.408311 962.29182 61.70818 759.591689 61.70818 512 61.70818 264.408311 264.408311 61.70818 512 61.70818 759.591689 61.70818 962.29182 264.408311 962.29182 512 962.29182 759.591689 759.591689 962.29182 512 962.29182L512 962.29182ZM512 1022.527115C792.858726 1022.527115 1022.527115 792.858726 1022.527115 512 1022.527115 231.141274 792.858726 1.472886 512 1.472886 231.141274 1.472886 1.472886 231.141274 1.472886 512 1.472886 792.858726 231.141274 1022.527115 512 1022.527115L512 1022.527115ZM564.408308 756.572094 468.326412 756.572094 468.326412 468.326412 564.408308 468.326412 564.408308 756.572094 564.408308 756.572094ZM564.408308 389.713956 468.326412 389.713956 468.326412 293.63206 564.408308 293.63206 564.408308 389.713956 564.408308 389.713956Z" fill="#5074d7"></path></g></g></svg>