<?xml version="1.0" standalone="no"?><!DOCTYPE svg PUBLIC "-//W3C//DTD SVG 1.1//EN" "http://www.w3.org/Graphics/SVG/1.1/DTD/svg11.dtd"><svg width="16" height="16" viewBox="0 0 16 16" version="1.1" xmlns="http://www.w3.org/2000/svg" xmlns:xlink="http://www.w3.org/1999/xlink"><defs><style type="text/css"><![CDATA[
@font-face { font-family: ifont; src: url("//at.alicdn.com/t/font_1442373896_4754455.eot?#iefix") format("embedded-opentype"), url("//at.alicdn.com/t/font_1442373896_4754455.woff") format("woff"), url("//at.alicdn.com/t/font_1442373896_4754455.ttf") format("truetype"), url("//at.alicdn.com/t/font_1442373896_4754455.svg#ifont") format("svg"); }

]]></style></defs><g class="transform-group"><g transform="scale(0.015625, 0.015625)"><path d="M686.916798 122.067126c-12.57234-6.954389-27.869744-6.581905-40.030715 0.963954l-243.164159 151.019529L218.431871 274.05061c-83.711564 0-151.816684 68.594261-151.816684 152.896272l0 170.109306c0 84.303035 68.105121 152.896272 151.816684 152.896272l185.291077 0 243.164159 151.007249c6.350638 3.946892 13.600763 5.939269 20.825304 5.939269 6.607488 0 13.214976-1.657756 19.205411-4.975315 12.521175-6.967692 20.284999-20.182668 20.284999-34.515095L707.20282 156.583245C707.201797 142.249795 699.437973 129.034818 686.916798 122.067126zM628.220978 796.398282l-192.412264-119.486348c-6.247284-3.882424-13.471826-5.939269-20.825304-5.939269L218.431871 670.972665c-40.158628 0-72.835865-33.153074-72.835865-73.915453L145.596006 426.947905c0-40.763402 32.677237-73.915453 72.835865-73.915453l196.551538 0c7.353478 0 14.576997-2.056845 20.825304-5.939269l192.412264-119.499651L628.220978 796.398282zM806.081829 214.288504c-11.82635-8.587586-28.255531-5.939269-36.790928 5.835915-8.535397 11.761881-5.913687 28.228925 5.835915 36.765345 81.165578 58.913784 129.603777 154.271596 129.603777 255.106142 0 100.821243-48.437176 196.179055-129.551588 255.080559-11.749602 8.535397-14.371312 25.00244-5.835915 36.765345 5.167696 7.095605 13.189394 10.862395 21.339004 10.862395 5.347798 0 10.772344-1.632173 15.451924-5.02648 94.715175-68.774363 151.250796-180.058912 151.250796-297.68182C957.384813 394.360719 900.822586 283.062867 806.081829 214.288504z" fill="#5074d7"></path></g></g></svg>