<?xml version="1.0" standalone="no"?><!DOCTYPE svg PUBLIC "-//W3C//DTD SVG 1.1//EN" "http://www.w3.org/Graphics/SVG/1.1/DTD/svg11.dtd"><svg width="16" height="16" viewBox="0 0 16 16" version="1.1" xmlns="http://www.w3.org/2000/svg" xmlns:xlink="http://www.w3.org/1999/xlink"><defs><style type="text/css"><![CDATA[
@font-face { font-family: ifont; src: url("//at.alicdn.com/t/font_1442373896_4754455.eot?#iefix") format("embedded-opentype"), url("//at.alicdn.com/t/font_1442373896_4754455.woff") format("woff"), url("//at.alicdn.com/t/font_1442373896_4754455.ttf") format("truetype"), url("//at.alicdn.com/t/font_1442373896_4754455.svg#ifont") format("svg"); }

]]></style></defs><g class="transform-group"><g transform="scale(0.015625, 0.015625)"><path d="M512 1.084817C230.50556 1.084817 3.390728 228.199649 3.390728 509.694088 3.390728 791.188527 230.50556 1018.303359 512 1018.303359 793.49444 1018.303359 1020.609272 791.188527 1020.609272 509.694088 1020.609272 228.199649 793.49444 1.084817 512 1.084817L512 1.084817 512 1.084817 512 1.084817ZM725.253364 589.6641C725.253364 600.326768 716.723227 607.790636 708.193097 613.12197 667.674955 634.447306 625.024283 649.375041 579.17481 655.772643 535.45787 662.170244 491.74093 662.170244 449.090258 655.772643 410.704653 649.375041 373.385314 636.57984 339.264776 618.453304 336.065975 616.32077 332.867175 613.12197 330.734642 609.92317 327.53584 605.658102 326.469574 601.393035 330.734642 596.061701 342.463576 577.935165 340.331043 554.477295 326.469574 537.417026 325.403307 535.284493 323.270773 533.151958 323.270773 531.019425L323.270773 490.501286C323.270773 489.435019 323.270773 489.435019 324.33704 487.302486 329.668374 488.368753 333.933442 490.501286 338.198509 491.567553 396.843184 511.826623 455.487859 532.085692 514.132534 551.278494 519.463868 553.411028 525.861469 552.344761 531.192803 551.278494 594.102545 529.953158 657.012287 507.561555 719.922027 486.236219 722.054564 485.169952 723.120826 485.169952 725.253364 485.169952L725.253364 486.236219C725.253364 520.356757 726.319633 554.477295 725.253364 589.6641L725.253364 589.6641 725.253364 589.6641 725.253364 589.6641ZM835.078842 406.266207C831.880043 408.398741 827.614981 410.531274 823.349913 411.597541 729.518433 443.585546 635.686951 476.639817 541.855471 508.627822 537.590404 509.694088 533.325336 511.826623 530.126536 512.892889 525.861469 513.959156 520.530134 513.959156 517.331334 512.892889 465.08426 495.83262 413.903453 477.706084 361.656379 460.645815 360.590112 460.645815 359.523845 459.579548 357.391312 458.513281 359.523845 457.447014 361.656379 456.380748 363.788913 455.314481 414.96972 435.055411 466.150527 414.796342 517.331334 393.471006 520.530134 392.404739 522.662668 391.338472 525.861469 390.272205 533.325336 387.073404 536.524137 378.54327 533.325336 371.079403 530.126536 363.615534 522.662668 360.416734 515.1988 362.549268 512 363.615534 507.734933 365.748069 504.536132 366.814335 442.692657 391.338472 380.849182 416.928876 319.005706 441.453013 305.144237 447.850613 296.614103 460.645815 290.216502 473.441017 281.686367 490.501286 279.553834 508.627822 278.487567 526.754358 278.487567 528.886891 279.553834 531.019425 281.686367 533.151958 296.614103 547.013427 297.68037 566.20623 282.752635 581.133965 281.686367 582.200232 280.6201 585.399033 280.6201 587.531566 281.686367 612.055703 282.752635 636.57984 282.752635 661.103977 282.752635 681.363049 277.4213 701.622116 263.559832 717.616121 258.228498 724.013721 250.76463 729.345051 243.300762 735.74265 237.969428 740.007719 231.571827 740.007719 225.174226 736.808919 211.312758 730.41132 199.583823 722.947452 186.788621 713.351053 203.84889 693.091979 218.776626 671.766645 229.439293 647.242508 237.969428 629.115972 243.300762 610.989436 246.499563 591.796634 247.565829 587.531566 246.499563 585.399033 243.300762 583.266499 224.107959 569.40503 226.240493 542.74836 246.499563 531.019425 249.698363 528.886891 250.76463 526.754358 250.76463 522.48929 251.830897 508.627822 252.897163 494.766353 255.029697 479.838618 257.162231 464.910883 265.692365 452.11568 275.288767 440.386746 277.4213 437.187945 279.553834 435.055411 282.752635 431.856611 264.626099 425.45901 247.565829 420.127676 229.439293 413.730075 223.041693 411.597541 215.577825 409.465008 209.180224 406.266207 204.915157 404.133674 200.650089 399.868607 200.650089 396.669806 199.583823 391.338472 204.915157 388.139671 210.246491 387.073404 230.50556 379.609537 251.830897 372.145669 272.089966 365.748069 352.059977 338.025131 432.029989 311.368461 512 283.645523 518.397601 281.51299 523.728935 281.51299 530.126536 283.645523 628.223083 317.766062 725.253364 350.820333 823.349913 384.940871 827.614981 386.007138 832.946312 388.139671 836.145111 391.338472 841.476449 396.669806 841.476449 403.067407 835.078842 406.266207L835.078842 406.266207 835.078842 406.266207 835.078842 406.266207Z" fill="#5074d7"></path></g></g></svg>